<?xml version="1.0" encoding="utf-8"?>
<!-- Generator: Adobe Illustrator 21.0.0, SVG Export Plug-In . SVG Version: 6.00 Build 0)  -->
<svg version="1.1" id="图层_1" xmlns="http://www.w3.org/2000/svg" xmlns:xlink="http://www.w3.org/1999/xlink" x="0px" y="0px"
	 viewBox="0 0 637.57 91.04" style="enable-background:new 0 0 637.57 91.04;" xml:space="preserve">
<style type="text/css">
	.st0{fill:#FFFFFF;}
	.st1{enable-background:new    ;}
	.st2{fill:#EDEEF0;}
</style>
<path class="st0" d="M107.63,50.94c-0.56,1.2-1.98,1.72-3.18,1.16s-1.72-1.98-1.16-3.18s1.98-1.72,3.18-1.16
	C107.67,48.31,108.19,49.74,107.63,50.94z M101.98,57.39c-1.2-0.56-2.62-0.04-3.18,1.16s-0.04,2.62,1.16,3.18
	c1.2,0.56,2.62,0.04,3.18-1.16C103.7,59.37,103.18,57.95,101.98,57.39z M110.2,58c0.56-1.2,0.04-2.62-1.16-3.18
	c-1.2-0.56-2.62-0.04-3.18,1.16s-0.04,2.62,1.16,3.18C108.21,59.72,109.64,59.2,110.2,58z M100.57,53.51
	c0.56-1.2,0.04-2.62-1.16-3.18c-1.2-0.56-2.62-0.04-3.18,1.16s-0.04,2.62,1.16,3.18C98.58,55.23,100.01,54.71,100.57,53.51z
	 M83.31,43.15l-2.95-1.38l1.38-2.95c0.24-0.52,0.02-1.15-0.51-1.39l-1.9-0.89c-0.52-0.24-1.15-0.02-1.39,0.51L76.56,40l-2.95-1.38
	c-0.52-0.24-1.15-0.02-1.39,0.51l-0.89,1.9c-0.24,0.52-0.02,1.15,0.51,1.39l2.95,1.38l-1.38,2.95c-0.24,0.52-0.02,1.15,0.51,1.39
	l1.9,0.89c0.52,0.24,1.15,0.02,1.39-0.51l1.38-2.95l2.95,1.38c0.52,0.24,1.15,0.02,1.39-0.51l0.89-1.9
	C84.06,44.02,83.83,43.39,83.31,43.15z M140.75,53.91L140.75,53.91c0,10.36-8.4,18.75-18.75,18.75h-11.46
	c2.25-5.92,5.07-14.05,5.32-16.92c0.4-4.42-1.64-10.75-9.16-12.21c-1.56-0.3-3.09-0.64-4.53-0.98c-2.62-0.62-5.22-1.37-7.66-2.5
	c-2.43-1.13-4.67-2.65-6.84-4.26c-1.19-0.88-2.43-1.84-3.66-2.84c-5.95-4.82-12.11-2.32-15.24,0.83S56.83,52.79,55.95,54.95
	c-0.56,1.36-0.44,4.14,2.08,5.12c2.95,1.15,5.85-0.3,7.18-0.81c6.75-2.58,9.92-4.29,12.64-4.79c3.59-0.66,7.04,0.42,9.3,1.36
	c2.17,1.13,5.22,3.07,7.02,6.25c1.21,2.14,1.92,5.16,3.71,10.57H50.15c-8.01,0-14.5-6.49-14.5-14.5l0,0
	c0-7.44,5.61-13.57,12.83-14.4C44.97,37.12,46,28.7,51.6,23.11c6.4-6.4,16.5-6.83,23.4-1.32c4.5-7.18,12.49-11.96,21.59-11.96
	c14.02,0,25.39,11.33,25.46,25.33C132.38,35.2,140.75,43.58,140.75,53.91z M103.93,35.3c-0.95-2.32-2.64-4.14-4.8-5.15
	s-4.65-1.13-7.03-0.37l0.99,3.3c0.57-0.14,1.15-0.22,1.73-0.22c0.97,0,1.9,0.21,2.77,0.61c1.38,0.64,2.5,1.77,3.19,3.19L103.93,35.3
	z M109.63,32.84c-1.44-3.91-4.17-6.96-7.74-8.62c-1.93-0.9-4-1.35-6.15-1.35c-1.82,0-3.65,0.33-5.43,0.97l0.98,3.26
	c1.33-0.44,2.7-0.67,4.06-0.67c1.75,0,3.43,0.37,5,1.1c2.8,1.3,4.96,3.66,6.16,6.66L109.63,32.84z M115.55,30.29
	c-1.93-5.54-5.75-9.87-10.79-12.22c-2.67-1.25-5.53-1.88-8.5-1.88c-2.61,0-5.24,0.49-7.8,1.47l1.05,3.49
	C91.6,20.39,93.74,20,95.89,20c2.53,0,4.96,0.54,7.23,1.59c4.2,1.96,7.41,5.55,9.09,10.14L115.55,30.29z"/>
<g class="st1">
	<path class="st0" d="M194.17,20.01c6.93,0,11.93,2.4,16.6,6.38c0.55,0.55,0.62,1.37,0.07,1.92c-0.62,0.62-1.37,1.3-1.92,1.92
		c-0.62,0.69-1.03,0.62-1.78-0.07c-3.5-3.09-8.44-5.35-13.03-5.35c-10.84,0-19.07,9.05-19.07,19.69c0,10.56,8.23,19.82,19.07,19.82
		c7.54,0,12.35-2.88,12.35-2.88v-9.6h-7.89c-0.75,0-1.3-0.55-1.3-1.23v-2.54c0-0.75,0.55-1.3,1.3-1.3h11.87
		c0.69,0,1.23,0.62,1.23,1.3v15.71c0,0.34-0.27,0.89-0.55,1.1c0,0-7,4.53-16.94,4.53c-13.72,0-24.76-10.91-24.76-24.62
		C169.41,31.05,180.45,20.01,194.17,20.01z"/>
	<path class="st0" d="M216.53,66.92l20.85-46.16c0.21-0.41,0.55-0.75,1.17-0.75h0.69c0.62,0,0.96,0.34,1.17,0.75l20.71,46.16
		c0.41,0.89-0.14,1.78-1.17,1.78h-2.74c-0.62,0-1.03-0.41-1.17-0.75l-5.08-11.32h-24.35l-5.01,11.32c-0.14,0.34-0.55,0.75-1.17,0.75
		h-2.74C216.67,68.7,216.12,67.81,216.53,66.92z M249.11,52.38c-3.36-7.48-6.65-15.02-10.01-22.5h-0.55l-10.01,22.5H249.11z"/>
	<path class="st0" d="M274,20.97c0.14-0.55,0.69-0.96,1.24-0.96h1.1c0.48,0,1.03,0.34,1.17,0.75l13.58,37.79c0.14,0,0.21,0,0.34,0
		l13.38-37.79c0.14-0.41,0.69-0.75,1.17-0.75h1.1c0.55,0,1.1,0.41,1.24,0.96l8.85,46.09c0.21,0.96-0.21,1.65-1.23,1.65h-2.74
		c-0.55,0-1.1-0.48-1.23-0.96l-6.1-35.32c-0.07,0-0.21,0-0.27,0l-12.62,36.21c-0.14,0.41-0.75,0.75-1.17,0.75h-1.23
		c-0.41,0-1.03-0.34-1.17-0.75l-12.76-36.21c-0.07,0-0.21,0-0.27,0l-5.97,35.32c-0.07,0.48-0.69,0.96-1.23,0.96h-2.74
		c-1.03,0-1.44-0.69-1.23-1.65L274,20.97z"/>
	<path class="st0" d="M327.71,22c0-0.69,0.55-1.3,1.3-1.3h27.02c0.75,0,1.3,0.62,1.3,1.3v1.99c0,0.69-0.55,1.3-1.3,1.3h-23.05v16.74
		h19.68c0.69,0,1.3,0.62,1.3,1.3v1.99c0,0.75-0.62,1.3-1.3,1.3h-19.68v17.49h23.05c0.75,0,1.3,0.62,1.3,1.3v1.99
		c0,0.69-0.55,1.3-1.3,1.3h-27.02c-0.75,0-1.3-0.62-1.3-1.3V22z"/>
</g>
<g class="st1">
	<path class="st0" d="M367.55,22c0-0.69,0.55-1.3,1.23-1.3h16.25c13.24,0,24.07,10.77,24.07,23.94c0,13.31-10.84,24.07-24.07,24.07
		h-16.25c-0.69,0-1.23-0.62-1.23-1.3V22z M384.22,60.34c8.92,0,15.43-6.72,15.43-15.71c0-8.92-6.52-15.64-15.43-15.64h-7.82v31.34
		H384.22z"/>
	<path class="st0" d="M418.17,22c0-0.69,0.55-1.3,1.3-1.3h15.71c8.16,0,14.47,5.49,14.47,12.69c0,5.28-4.32,9.4-7.54,10.91
		c3.64,1.17,8.92,4.87,8.92,11.18c0,7.68-6.58,13.24-14.95,13.24h-16.6c-0.75,0-1.3-0.62-1.3-1.3V22z M434.36,40.86
		c3.5,0,5.9-2.74,5.9-6.17c0-3.43-2.4-5.83-5.9-5.83h-7.34v12H434.36z M435.32,60.61c3.43,0,6.17-2.67,6.17-6.24
		c0-3.43-3.43-5.97-7-5.97h-7.48v12.21H435.32z"/>
</g>
<g>
	<path class="st2" d="M493.37,49.99c-1.91,6.03-3.97,11.7-6.28,17.03l-3.37-1.46c2.51-5.48,4.67-11.1,6.48-16.83L493.37,49.99z
		 M493.82,41.9l-2.61,2.61c-1.71-2.21-4.07-4.52-7.08-6.93l2.46-2.36C489.45,37.43,491.86,39.64,493.82,41.9z M493.67,28.89
		l-2.56,2.56c-1.66-2.01-3.92-4.17-6.83-6.43l2.51-2.36C489.5,24.72,491.81,26.79,493.67,28.89z M494.22,33.01v-3.47h7.03
		c-0.6-2.71-1.36-5.22-2.16-7.53l3.62-0.65c0.75,2.41,1.46,5.12,2.11,8.19h5.78v3.47h-8.84v3.42c0,1.36-0.05,2.66-0.1,3.97h8.14
		c0,11.7-0.25,18.94-0.7,21.7c-0.3,3.16-1.86,4.77-4.67,4.77c-0.7,0-1.96-0.1-3.67-0.2l-0.85-3.06c1.56,0.05,2.91,0.1,4.07,0.1
		c1,0,1.61-1,1.81-2.91c0.35-1.86,0.55-7.48,0.6-16.88h-4.92c-0.8,10.45-3.01,18.33-6.73,23.66l-2.66-2.36
		c4.02-5.98,6.08-15.57,6.18-28.78v-3.42h-4.04V33.01z M511.25,40.4l-2.26-2.76c3.11-4.02,5.22-9.49,6.33-16.32l3.62,0.6
		c-0.45,2.41-1,4.62-1.61,6.68h12.46v3.67h-13.71C514.72,35.47,513.11,38.19,511.25,40.4z M528.23,37.58v3.26
		c-1.61,2.11-3.37,4.12-5.22,6.03v3.11h6.98v3.26h-6.98v9.09c0,3.11-1.31,4.67-3.82,4.67h-4.47l-0.85-3.32
		c1.21,0.05,2.56,0.1,4.07,0.1c1,0,1.56-0.9,1.56-2.66v-7.89h-7.69v-3.26h7.69v-3.62c2.11-2.31,3.67-4.17,4.67-5.53h-9.54v-3.26
		h13.6V37.58z"/>
	<path class="st2" d="M546.41,44.11c1.61-4.32,2.66-9.04,3.17-14.06h-13.36v-3.57h16.83v3.32c-0.45,6.53-1.81,12.46-4.02,17.68
		c2.21,2.91,4.22,5.78,6.03,8.69l-2.61,2.56c-1.51-2.51-3.21-5.07-5.12-7.58c-2.76,5.12-6.43,9.59-11.05,13.31l-2.31-2.81
		c4.62-3.92,8.24-8.49,10.85-13.81c-2.71-3.42-5.68-6.93-8.99-10.5l2.56-2.51C541.29,37.94,543.95,41,546.41,44.11z M578.41,36.93
		l-13.61,2.21c0.2,2.41,0.5,4.57,0.85,6.58c0.45,2.36,0.95,4.47,1.46,6.38c2.71-3.11,5.12-6.78,7.23-11l2.96,1.96
		c-2.76,5.12-5.73,9.44-8.94,12.91c0.35,1,0.7,1.91,1.11,2.71c1.61,2.91,3.01,4.42,4.27,4.47c0.85-0.2,1.71-3.21,2.51-8.94
		l3.11,2.01c-0.7,2.91-1.41,5.32-2.16,7.33c-1,2.41-2.06,3.62-3.27,3.62c-2.01,0-4.07-1.61-6.08-4.82c-0.7-1.16-1.41-2.46-2.01-3.92
		c-3.32,3.01-6.78,5.22-10.5,6.68l-2.21-2.96c4.22-1.71,7.99-4.12,11.35-7.33c-0.7-2.01-1.31-4.17-1.81-6.58
		c-0.6-2.46-1.05-5.32-1.41-8.54l-6.38,1.05l-0.55-3.47l6.63-1.11c-0.35-4.27-0.55-9.09-0.55-14.47h3.62
		c0,5.17,0.15,9.79,0.45,13.91l13.36-2.16L578.41,36.93z M575.85,29.65l-3.01,2.06c-1.31-2.06-3.06-4.32-5.32-6.78l2.96-1.86
		C572.79,25.58,574.59,27.74,575.85,29.65z"/>
	<path class="st2" d="M611.56,26.13h18.08v3.52h-37.22V41.1c-0.2,11.1-1.86,19.99-5.07,26.62l-2.96-2.66
		c2.76-5.73,4.22-13.71,4.32-23.96V26.13h18.89c-0.8-1.56-1.71-2.96-2.61-4.17l4.02-0.7C609.91,22.72,610.76,24.32,611.56,26.13z
		 M609.2,31.86c-0.45,1.41-0.9,2.71-1.36,4.02h19.59v3.16h-20.85c-1.41,3.21-2.91,6.08-4.52,8.59h9.39v-6.08h3.62v6.08h11.2v3.26
		h-11.2v5.63h15.02v3.32h-15.02v7.94h-3.62v-7.94h-18.13v-3.32h18.13V50.9H598.3l-0.75-3.11c1.91-2.36,3.67-5.27,5.22-8.74h-7.58
		v-3.16h8.89c0.55-1.56,1.11-3.16,1.66-4.82L609.2,31.86z"/>
</g>
</svg>
